#!OML:ASF H:\ManfredETheater\Project 1\Capture day 1\Session 1\subject.ASF
:FULLY-SPECIFIED
:DEGREES
139
root 2.70198 15.7539 -16.0107 -186.578 -53.2776 187.031
lowerback 17.895 1.40164 -1.47835
upperback 2.76906 1.39897 1.04661
thorax -7.11028 0.621563 1.64417
lowerneck -0.383181 -10.054 -12.6987
upperneck 8.09627 -14.1773 10.7042
head 4.14573 -7.09807 4.58959
rclavicle 5.26779e-015 -3.49861e-014
rhumerus -45.5068 -6.69137 -41.1516
rradius 113.221
rwrist 1.00185
rhand -28.0633 -0.429673
rfingers 7.12502
rthumb -1.44701 -30.4045
lclavicle 5.26779e-015 -3.49861e-014
lhumerus -70.9046 15.7971 39.8504
lradius 74.6728
lwrist 15.0689
lhand -24.3569 -5.40522
lfingers 7.12502
lthumb 2.13266 24.5639
rfemur -30.6441 -10.6428 16.6578
rtibia 67.3495
rfoot -23.9877 -16.7864
rtoes -36.6696
lfemur -38.6015 -5.08604 -20.6905
ltibia 69.4889
lfoot 8.22078 18.9195
ltoes 69.5183
140
root 2.66299 15.6029 -16.283 -186.026 -53.7676 186.59
lowerback 18.5675 1.52207 -1.59229
upperback 2.71291 1.50791 0.880679
thorax -7.5393 0.675968 1.49556
lowerneck -0.187281 -10.4261 -12.6979
upperneck 7.12933 -14.6251 10.9769
head 3.89638 -7.31096 4.6629
rclavicle 2.76311e-014 -1.39149e-014
rhumerus -45.6462 -7.89289 -45.7129
rradius 113.373
rwrist 1.31803
rhand -29.5775 -0.596037
rfingers 7.12502
rthumb -2.90945 -30.5559
lclavicle 2.76311e-014 -1.39149e-014
lhumerus -67.9363 19.4659 44.085
lradius 72.4755
lwrist 17.358
lhand -24.8906 -5.19628
lfingers 7.12502
lthumb 1.61727 24.7773
rfemur -31.8225 -11.3151 17.0874
rtibia 70.7372
rfoot -24.96 -17.8026
rtoes -37.0386
lfemur -39.9166 -5.6652 -20.0686
ltibia 72.6545
lfoot 5.06292 20.9235
ltoes 69.1796
141
root 2.62114 15.4839 -16.5491 -185.353 -54.1058 185.847
lowerback 19.2177 1.71069 -1.8504
upperback 2.78121 1.66421 0.719729
thorax -7.82674 0.750853 1.42085
lowerneck -0.126668 -10.7863 -12.7775
upperneck 6.3276 -15.0494 11.1978
head 3.72023 -7.51375 4.72419
rclavicle 7.95139e-015 1.59028e-015
rhumerus -45.1824 -8.70814 -50.298
rradius 112.313
rwrist 1.02845
rhand -30.8119 -0.952189
rfingers 7.12502
rthumb -4.10153 -30.8925
lclavicle 7.95139e-015 1.59028e-015
lhumerus -64.2844 22.6709 48.8267
lradius 69.9359
lwrist 20.212
lhand -25.2586 -5.23184
lfingers 7.12502
lthumb 1.26181 24.7442
rfemur -32.799 -11.9886 17.257
rtibia 73.9237
rfoot -25.4012 -18.2345
rtoes -37.6815
lfemur -40.7911 -5.84527 -19.6177
ltibia 75.3975
lfoot 2.54129 21.1998
ltoes 68.8826
142
root 2.57589 15.3927 -16.8132 -184.662 -54.3398 184.907
lowerback 19.8489 1.93855 -2.19308
upperback 2.94948 1.83957 0.54539
thorax -7.9971 0.831509 1.37316
lowerneck -0.144981 -11.1266 -12.8907
upperneck 5.67419 -15.4538 11.4285
head 3.60397 -7.70675 4.78709
rclavicle 5.00937e-014 -2.78299e-015
rhumerus -44.1083 -9.1341 -54.739
rradius 109.973
rwrist -0.116277
rhand -31.5823 -1.66504
rfingers 7.12502
rthumb -4.84537 -31.5896
lclavicle 5.00937e-014 -2.78299e-015
lhumerus -60.0855 25.0912 54.027
lradius 67.3102
lwrist 23.3357
lhand -25.3686 -5.46222
lfingers 7.12502
lthumb 1.15553 24.5144
rfemur -33.5119 -12.689 17.1894
rtibia 76.8708
rfoot -25.4076 -18.0161
rtoes -38.411
lfemur -41.1446 -5.63756 -19.33
ltibia 77.65
lfoot 0.941318 20.5075
ltoes 68.7683
143
root 2.52812 15.3253 -17.0787 -183.819 -54.5389 183.702
lowerback 20.4142 2.16442 -2.7077
upperback 3.15335 1.9637 0.329956
thorax -8.09418 0.889141 1.39153
lowerneck -0.185118 -11.4226 -13.0125
upperneck 5.15995 -15.8161 11.715
head 3.53452 -7.87929 4.86667
rclavicle -7.32522e-014 3.53837e-014
rhumerus -42.4457 -9.12904 -58.8977
rradius 106.399
rwrist -2.14188
rhand -32.1225 -2.26636
rfingers 7.12502
rthumb -5.36698 -32.1784
lclavicle -7.32522e-014 3.53837e-014
lhumerus -55.6003 26.4773 59.5664
lradius 64.8647
lwrist 26.261
lhand -25.196 -5.81494
lfingers 7.12502
lthumb 1.32224 24.1607
rfemur -34.0483 -13.4359 16.8221
rtibia 79.6072
rfoot -24.9687 -17.2307
rtoes -39.3095
lfemur -41.0811 -5.13046 -19.2591
ltibia 79.4278
lfoot -0.373279 19.6373
ltoes 68.739
144
root 2.47987 15.2747 -17.3468 -182.844 -54.7753 182.41
lowerback 20.8328 2.32123 -3.32343
upperback 3.34641 1.97203 0.0820414
thorax -8.12012 0.893364 1.4652
lowerneck -0.244529 -11.6613 -13.0764
upperneck 4.75439 -16.1183 12.0648
head 3.49547 -8.02115 4.95789
rclavicle 3.37934e-015 4.37326e-015
rhumerus -40.2401 -8.66018 -62.6973
rradius 101.778
rwrist -4.80585
rhand -32.3168 -2.64048
rfingers 7.12502
rthumb -5.55457 -32.5477
lclavicle 3.37934e-015 4.37326e-015
lhumerus -51.0277 26.6816 65.3176
lradius 62.8224
lwrist 28.5938
lhand -24.8459 -6.2707
lfingers 7.12502
lthumb 1.66044 23.7026
rfemur -34.6012 -14.2618 16.2795
rtibia 82.1789
rfoot -24.0793 -15.8578
rtoes -40.1846
lfemur -40.8285 -4.41922 -19.2634
ltibia 80.8132
lfoot -1.33752 18.6614
ltoes 68.8025
145
root 2.42992 15.2377 -17.6162 -181.753 -55.0809 181.117
lowerback 21.1043 2.38338 -3.95388
upperback 3.49656 1.85556 -0.198809
thorax -8.10547 0.83933 1.54817
lowerneck -0.329469 -11.862 -13.0714
upperneck 4.44947 -16.3847 12.4766
head 3.4873 -8.14389 5.05631
rclavicle -5.02925e-014 3.29983e-014
rhumerus -37.6862 -7.76229 -66.0623
rradius 96.4391
rwrist -7.48465
rhand -31.9277 -2.76637
rfingers 7.12502
rthumb -5.17897 -32.6831
lclavicle -5.02925e-014 3.29983e-014
lhumerus -46.5483 25.5086 71.1662
lradius 61.353
lwrist 30.0128
lhand -24.4897 -6.87453
lfingers 7.12502
lthumb 2.00437 23.0958
rfemur -35.2798 -15.1908 15.6121
rtibia 84.6098
rfoot -22.7137 -13.8424
rtoes -40.8994
lfemur -40.5489 -3.64577 -19.2409
ltibia 81.8992
lfoot -2.31403 17.6763
ltoes 68.8596
146
root 2.37792 15.2096 -17.8871 -180.661 -55.4576 179.99
lowerback 21.2315 2.33837 -4.49886
upperback 3.58807 1.62878 -0.480065
thorax -8.06685 0.733306 1.61496
lowerneck -0.43936 -12.0358 -13.0144
upperneck 4.22579 -16.6283 12.9409
head 3.50624 -8.2541 5.16085
rclavicle -6.55989e-015 -2.14687e-014
rhumerus -35.0034 -6.44584 -68.9745
rradius 90.7856
rwrist -9.47529
rhand -31.1182 -2.46822
rfingers 7.12502
rthumb -4.39727 -32.4026
lclavicle -6.55989e-015 -2.14687e-014
lhumerus -42.3576 22.8701 76.9149
lradius 60.5416
lwrist 30.3105
lhand -24.4105 -7.65392
lfingers 7.12502
lthumb 2.08089 22.3157
rfemur -36.1443 -16.1987 14.9526
rtibia 86.9056
rfoot -20.9141 -11.169
rtoes -41.1697
lfemur -40.332 -2.84789 -19.0627
ltibia 82.7836
lfoot -3.40761 16.6662
ltoes 68.8988
147
root 2.32415 15.1885 -18.16 -179.61 -55.9077 179.043
lowerback 21.2908 2.20554 -4.94715
upperback 3.60575 1.31982 -0.74068
thorax -8.06375 0.59059 1.67221
lowerneck -0.533126 -12.1913 -12.9384
upperneck 4.05136 -16.8589 13.427
head 3.53722 -8.35888 5.26959
rclavicle 3.11098e-014 -1.07344e-014
rhumerus -32.4716 -4.76542 -71.4373
rradius 85.2444
rwrist -10.2217
rhand -29.9793 -1.74436
rfingers 7.12502
rthumb -3.29743 -31.6986
lclavicle 3.11098e-014 -1.07344e-014
lhumerus -38.6669 18.8119 82.3118
lradius 60.3978
lwrist 29.4182
lhand -24.5595 -8.6614
lfingers 7.12502
lthumb 1.93697 21.3096
rfemur -37.1739 -17.2698 14.3337
rtibia 89.0415
rfoot -18.6318 -7.91968
rtoes -40.9174
lfemur -40.1621 -2.05432 -18.712
ltibia 83.5018
lfoot -4.64442 15.6146
ltoes 68.9188
148
root 2.26779 15.1731 -18.4347 -178.56 -56.4341 178.198
lowerback 21.318 2.02088 -5.30108
upperback 3.55308 0.973459 -0.974701
thorax -8.11505 0.433357 1.71452
lowerneck -0.584523 -12.3521 -12.8843
upperneck 3.88876 -17.104 13.9138
head 3.56997 -8.47356 5.38209
rclavicle 3.51849e-014 1.78906e-014
rhumerus -30.3408 -2.8971 -73.4622
rradius 80.2309
rwrist -9.47678
rhand -28.691 -0.660939
rfingers 7.12502
rthumb -2.05325 -30.6308
lclavicle 3.51849e-014 1.78906e-014
lhumerus -35.5803 13.5468 87.1597
lradius 60.8713
lwrist 27.4035
lhand -24.8733 -9.84495
lfingers 7.12502
lthumb 1.63395 20.1285
rfemur -38.3351 -18.4167 13.7217
rtibia 90.9871
rfoot -15.9337 -4.14819
rtoes -39.7786
lfemur -40.0107 -1.30197 -18.2493
ltibia 84.0611
lfoot -5.93686 14.5489
ltoes 68.9306
149
root 2.20891 15.1626 -18.7107 -177.55 -57.0048 177.475
lowerback 21.3499 1.81517 -5.54227
upperback 3.44262 0.632644 -1.15962
thorax -8.23075 0.281825 1.74383
lowerneck -0.626137 -12.5318 -12.883
upperneck 3.72086 -17.3724 14.3765
head 3.60644 -8.60166 5.49244
rclavicle -7.87187e-014 4.45278e-014
rhumerus -28.7523 -0.991289 -75.0842
rradius 76.096
rwrist -7.43885
rhand -27.5664 0.639386
rfingers 7.12502
rthumb -0.967152 -29.3382
lclavicle -7.87187e-014 4.45278e-014
lhumerus -33.0827 7.39442 91.3536
lradius 61.8999
lwrist 24.7074
lhand -25.2042 -11.2854
lfingers 7.12502
lthumb 1.31439 18.6903
rfemur -39.5925 -19.5977 13.1595
rtibia 92.7121
rfoot -12.8641 -0.12011
rtoes -37.7785
lfemur -39.848 -0.592819 -17.6691
ltibia 84.4576
lfoot -7.23394 13.4948
ltoes 68.9388
150
root 2.14733 15.1569 -18.9889 -176.581 -57.5852 176.853
lowerback 21.3965 1.62576 -5.68528
upperback 3.28912 0.341986 -1.28702
thorax -8.4044 0.156953 1.76566
lowerneck -0.679117 -12.7426 -12.9428
upperneck 3.52452 -17.6727 14.8021
head 3.64415 -8.74668 5.59594
rclavicle 8.7664e-014 0
rhumerus -27.7756 0.750436 -76.3528
rradius 73.1002
rwrist -4.73553
rhand -26.8894 1.91759
rfingers 7.12502
rthumb -0.313245 -28.0619
lclavicle 8.7664e-014 0
lhumerus -31.0699 0.682633 94.8383
lradius 63.4352
lwrist 21.7328
lhand -25.1339 -12.6473
lfingers 7.12502
lthumb 1.38224 17.328
rfemur -40.9135 -20.7704 12.6672
rtibia 94.1989
rfoot -9.64081 3.78842
rtoes -34.9919
lfemur -39.645 0.0786322 -16.9899
ltibia 84.6832
lfoot -8.48499 12.4722
ltoes 68.9613
151
root 2.08308 15.1553 -19.2694 -175.574 -58.1486 176.23
lowerback 21.442 1.47385 -5.79388
upperback 3.1201 0.114811 -1.35628
thorax -8.59921 0.0645216 1.81388
lowerneck -0.795598 -12.9849 -13.0839
upperneck 3.28407 -17.9954 15.1849
head 3.68723 -8.90174 5.69094
rclavicle -3.37934e-015 3.97569e-015
rhumerus -27.3477 2.17494 -77.3217
rradius 71.352
rwrist -2.18775
rhand -26.6377 2.89925
rfingers 7.12502
rthumb -0.0701463 -27.0805
lclavicle -3.37934e-015 3.97569e-015
lhumerus -29.3398 -6.17969 97.6049
lradius 65.3871
lwrist 18.856
lhand -24.2339 -14.0011
lfingers 7.12502
lthumb 2.25149 15.9667
rfemur -42.2748 -21.9187 12.2139
rtibia 95.449
rfoot -6.62896 7.15322
rtoes -31.8725
lfemur -39.3876 0.701814 -16.2873
ltibia 84.7385
lfoot -9.62301 11.5185
ltoes 69.0068
